# xmcd CD database file
#
# Track frame offsets:
#	150
#	25523
#	47162
#	67488
#	91478
#	104318
#	119849
#	141391
#	152876
#	170536
#
# Disc length: 2549 seconds
#
# Revision: 0
# Processed by: cddbd v1.5.1PL2 Copyright (c) Steve Scherf et al.
# Submitted via: CDex 1.51
#
DISCID=9409f30a
DTITLE=F.I.B Journal - Routine4229
DYEAR=2006
DGENRE=Jazz
TTITLE0=How To Make A Poet（詩人の作り方 ）
TTITLE1=Disguised Saint（偽装聖者）
TTITLE2=Ok23
TTITLE3=Creaks Ferris Wheel（キシム観覧車）
TTITLE4=Tunisia Mood ?
TTITLE5=Politician In Mourning '05（喪服を着た政治家）
TTITLE6=Too Many Sounds,Too Many Words （多すぎる音に多すぎる言葉）
TTITLE7=Girasol's Song
TTITLE8=B.R.I （ブルース再生）
TTITLE9=I Saw The Echo
EXTD=YEAR: 2006
EXTT0=
EXTT1=
EXTT2=
EXTT3=
EXTT4=
EXTT5=
EXTT6=
EXTT7=
EXTT8=
EXTT9=
PLAYORDER=
